{
	"asset":{
		"generator":"Khronos glTF Blender I/O v4.2.60",
		"version":"2.0"
	},
	"extensionsUsed":[
		"KHR_materials_unlit"
	],
	"scene":0,
	"scenes":[
		{
			"name":"Scene",
			"nodes":[
				20
			]
		}
	],
	"nodes":[
		{
			"name":"Cube_0",
			"rotation":[
				-0.49927449226379395,
				0.4984108507633209,
				-0.5025064945220947,
				0.4997989237308502
			],
			"scale":[
				0.3124676048755646,
				0.3124676048755646,
				0.31246763467788696
			],
			"translation":[
				2.6180806159973145,
				-0.009604118764400482,
				0.008582741022109985
			]
		},
		{
			"mesh":0,
			"name":"Object_10"
		},
		{
			"mesh":1,
			"name":"Object_11"
		},
		{
			"mesh":2,
			"name":"Object_12"
		},
		{
			"mesh":3,
			"name":"Object_13"
		},
		{
			"mesh":4,
			"name":"Object_14"
		},
		{
			"mesh":5,
			"name":"Object_15"
		},
		{
			"mesh":6,
			"name":"Object_16"
		},
		{
			"mesh":7,
			"name":"Object_17"
		},
		{
			"mesh":8,
			"name":"Object_18"
		},
		{
			"mesh":9,
			"name":"Object_19"
		},
		{
			"mesh":10,
			"name":"Object_20"
		},
		{
			"mesh":11,
			"name":"Object_21"
		},
		{
			"mesh":12,
			"name":"Object_6"
		},
		{
			"mesh":13,
			"name":"Object_7"
		},
		{
			"mesh":14,
			"name":"Object_8"
		},
		{
			"mesh":15,
			"name":"Object_9"
		},
		{
			"children":[
				1,
				2,
				3,
				4,
				5,
				6,
				7,
				8,
				9,
				10,
				11,
				12,
				13,
				14,
				15,
				16
			],
			"name":"Q10987-files2_3",
			"rotation":[
				-0.4985194504261017,
				0.8209035396575928,
				-0.24641695618629456,
				0.12990160286426544
			],
			"scale":[
				1.1236454248428345,
				1.1236454248428345,
				1.123645544052124
			]
		},
		{
			"children":[
				0,
				17
			],
			"name":"GLTF_SceneRootNode",
			"rotation":[
				0.70710688829422,
				0,
				0,
				0.7071066498756409
			]
		},
		{
			"children":[
				18
			],
			"name":"root"
		},
		{
			"children":[
				19
			],
			"name":"Sketchfab_model",
			"rotation":[
				-0.70710688829422,
				0,
				0,
				0.7071066498756409
			]
		}
	],
	"materials":[
		{
			"doubleSided":true,
			"extensions":{
				"KHR_materials_unlit":{}
			},
			"name":"Q10987-files2_tex0",
			"pbrMetallicRoughness":{
				"baseColorTexture":{
					"index":0
				},
				"metallicFactor":0,
				"roughnessFactor":0.9
			}
		},
		{
			"doubleSided":true,
			"extensions":{
				"KHR_materials_unlit":{}
			},
			"name":"Q10987-files2_tex1",
			"pbrMetallicRoughness":{
				"baseColorTexture":{
					"index":1
				},
				"metallicFactor":0,
				"roughnessFactor":0.9
			}
		}
	],
	"meshes":[
		{
			"name":"Object_5",
			"primitives":[
				{
					"attributes":{
						"POSITION":0,
						"NORMAL":1,
						"TEXCOORD_0":2
					},
					"indices":3,
					"material":0
				}
			]
		},
		{
			"name":"Object_6",
			"primitives":[
				{
					"attributes":{
						"POSITION":4,
						"NORMAL":5,
						"TEXCOORD_0":6
					},
					"indices":7,
					"material":0
				}
			]
		},
		{
			"name":"Object_7",
			"primitives":[
				{
					"attributes":{
						"POSITION":8,
						"NORMAL":9,
						"TEXCOORD_0":10
					},
					"indices":11,
					"material":0
				}
			]
		},
		{
			"name":"Object_8",
			"primitives":[
				{
					"attributes":{
						"POSITION":12,
						"NORMAL":13,
						"TEXCOORD_0":14
					},
					"indices":15,
					"material":0
				}
			]
		},
		{
			"name":"Object_9",
			"primitives":[
				{
					"attributes":{
						"POSITION":16,
						"NORMAL":17,
						"TEXCOORD_0":18
					},
					"indices":19,
					"material":1
				}
			]
		},
		{
			"name":"Object_10",
			"primitives":[
				{
					"attributes":{
						"POSITION":20,
						"NORMAL":21,
						"TEXCOORD_0":22
					},
					"indices":23,
					"material":1
				}
			]
		},
		{
			"name":"Object_11",
			"primitives":[
				{
					"attributes":{
						"POSITION":24,
						"NORMAL":25,
						"TEXCOORD_0":26
					},
					"indices":27,
					"material":1
				}
			]
		},
		{
			"name":"Object_12",
			"primitives":[
				{
					"attributes":{
						"POSITION":28,
						"NORMAL":29,
						"TEXCOORD_0":30
					},
					"indices":31,
					"material":1
				}
			]
		},
		{
			"name":"Object_13",
			"primitives":[
				{
					"attributes":{
						"POSITION":32,
						"NORMAL":33,
						"TEXCOORD_0":34
					},
					"indices":35,
					"material":1
				}
			]
		},
		{
			"name":"Object_14",
			"primitives":[
				{
					"attributes":{
						"POSITION":36,
						"NORMAL":37,
						"TEXCOORD_0":38
					},
					"indices":39,
					"material":1
				}
			]
		},
		{
			"name":"Object_15",
			"primitives":[
				{
					"attributes":{
						"POSITION":40,
						"NORMAL":41,
						"TEXCOORD_0":42
					},
					"indices":43,
					"material":1
				}
			]
		},
		{
			"name":"Object_16",
			"primitives":[
				{
					"attributes":{
						"POSITION":44,
						"NORMAL":45,
						"TEXCOORD_0":46
					},
					"indices":47,
					"material":1
				}
			]
		},
		{
			"name":"Object_1",
			"primitives":[
				{
					"attributes":{
						"POSITION":48,
						"NORMAL":49,
						"TEXCOORD_0":50
					},
					"indices":51,
					"material":0
				}
			]
		},
		{
			"name":"Object_2",
			"primitives":[
				{
					"attributes":{
						"POSITION":52,
						"NORMAL":53,
						"TEXCOORD_0":54
					},
					"indices":55,
					"material":0
				}
			]
		},
		{
			"name":"Object_3",
			"primitives":[
				{
					"attributes":{
						"POSITION":56,
						"NORMAL":57,
						"TEXCOORD_0":58
					},
					"indices":59,
					"material":0
				}
			]
		},
		{
			"name":"Object_4",
			"primitives":[
				{
					"attributes":{
						"POSITION":60,
						"NORMAL":61,
						"TEXCOORD_0":62
					},
					"indices":63,
					"material":0
				}
			]
		}
	],
	"textures":[
		{
			"sampler":0,
			"source":0
		},
		{
			"sampler":0,
			"source":1
		}
	],
	"images":[
		{
			"mimeType":"image/jpeg",
			"name":"Q10987-files2_tex0_baseColor",
			"uri":"Q10987-files2_tex0_baseColor.jpg"
		},
		{
			"mimeType":"image/jpeg",
			"name":"Q10987-files2_tex1_baseColor",
			"uri":"Q10987-files2_tex1_baseColor.jpg"
		}
	],
	"accessors":[
		{
			"bufferView":0,
			"componentType":5126,
			"count":65659,
			"max":[
				0.9832628965377808,
				1.4837913513183594,
				1.7300894260406494
			],
			"min":[
				-0.6701761484146118,
				-1.709609031677246,
				-1.269121527671814
			],
			"type":"VEC3"
		},
		{
			"bufferView":1,
			"componentType":5126,
			"count":65659,
			"type":"VEC3"
		},
		{
			"bufferView":2,
			"componentType":5126,
			"count":65659,
			"type":"VEC2"
		},
		{
			"bufferView":3,
			"componentType":5125,
			"count":233937,
			"type":"SCALAR"
		},
		{
			"bufferView":4,
			"componentType":5126,
			"count":65660,
			"max":[
				0.978442907333374,
				1.5184688568115234,
				1.8139424324035645
			],
			"min":[
				-0.6704391241073608,
				-1.7535438537597656,
				-1.2664434909820557
			],
			"type":"VEC3"
		},
		{
			"bufferView":5,
			"componentType":5126,
			"count":65660,
			"type":"VEC3"
		},
		{
			"bufferView":6,
			"componentType":5126,
			"count":65660,
			"type":"VEC2"
		},
		{
			"bufferView":7,
			"componentType":5125,
			"count":208092,
			"type":"SCALAR"
		},
		{
			"bufferView":8,
			"componentType":5126,
			"count":65851,
			"max":[
				0.9832528829574585,
				1.5124092102050781,
				1.815076470375061
			],
			"min":[
				-0.6694781184196472,
				-1.7493019104003906,
				-1.2709345817565918
			],
			"type":"VEC3"
		},
		{
			"bufferView":9,
			"componentType":5126,
			"count":65851,
			"type":"VEC3"
		},
		{
			"bufferView":10,
			"componentType":5126,
			"count":65851,
			"type":"VEC2"
		},
		{
			"bufferView":11,
			"componentType":5125,
			"count":123777,
			"type":"SCALAR"
		},
		{
			"bufferView":12,
			"componentType":5126,
			"count":18301,
			"max":[
				0.9639098644256592,
				1.5049238204956055,
				1.815076470375061
			],
			"min":[
				-0.6701271533966064,
				-1.7402992248535156,
				-1.241808533668518
			],
			"type":"VEC3"
		},
		{
			"bufferView":13,
			"componentType":5126,
			"count":18301,
			"type":"VEC3"
		},
		{
			"bufferView":14,
			"componentType":5126,
			"count":18301,
			"type":"VEC2"
		},
		{
			"bufferView":15,
			"componentType":5123,
			"count":21972,
			"type":"SCALAR"
		},
		{
			"bufferView":16,
			"componentType":5126,
			"count":65739,
			"max":[
				0.9590878486633301,
				1.4996891021728516,
				1.8104194402694702
			],
			"min":[
				-0.6636371612548828,
				-1.7535476684570312,
				-1.2712165117263794
			],
			"type":"VEC3"
		},
		{
			"bufferView":17,
			"componentType":5126,
			"count":65739,
			"type":"VEC3"
		},
		{
			"bufferView":18,
			"componentType":5126,
			"count":65739,
			"type":"VEC2"
		},
		{
			"bufferView":19,
			"componentType":5125,
			"count":291873,
			"type":"SCALAR"
		},
		{
			"bufferView":20,
			"componentType":5126,
			"count":65704,
			"max":[
				0.9832628965377808,
				1.505803108215332,
				1.8154034614562988
			],
			"min":[
				-0.6643661260604858,
				-1.724085807800293,
				-1.2470695972442627
			],
			"type":"VEC3"
		},
		{
			"bufferView":21,
			"componentType":5126,
			"count":65704,
			"type":"VEC3"
		},
		{
			"bufferView":22,
			"componentType":5126,
			"count":65704,
			"type":"VEC2"
		},
		{
			"bufferView":23,
			"componentType":5125,
			"count":284493,
			"type":"SCALAR"
		},
		{
			"bufferView":24,
			"componentType":5126,
			"count":65673,
			"max":[
				0.9714888334274292,
				1.5184688568115234,
				1.8131264448165894
			],
			"min":[
				-0.6652741432189941,
				-1.7535820007324219,
				-1.2706605195999146
			],
			"type":"VEC3"
		},
		{
			"bufferView":25,
			"componentType":5126,
			"count":65673,
			"type":"VEC3"
		},
		{
			"bufferView":26,
			"componentType":5126,
			"count":65673,
			"type":"VEC2"
		},
		{
			"bufferView":27,
			"componentType":5125,
			"count":272427,
			"type":"SCALAR"
		},
		{
			"bufferView":28,
			"componentType":5126,
			"count":65659,
			"max":[
				0.9601658582687378,
				1.5174808502197266,
				1.8095895051956177
			],
			"min":[
				-0.6575131416320801,
				-1.7543020248413086,
				-1.2615635395050049
			],
			"type":"VEC3"
		},
		{
			"bufferView":29,
			"componentType":5126,
			"count":65659,
			"type":"VEC3"
		},
		{
			"bufferView":30,
			"componentType":5126,
			"count":65659,
			"type":"VEC2"
		},
		{
			"bufferView":31,
			"componentType":5125,
			"count":267786,
			"type":"SCALAR"
		},
		{
			"bufferView":32,
			"componentType":5126,
			"count":65654,
			"max":[
				0.983089804649353,
				1.5177898406982422,
				1.8151274919509888
			],
			"min":[
				-0.6681131720542908,
				-1.7499618530273438,
				-1.2563875913619995
			],
			"type":"VEC3"
		},
		{
			"bufferView":33,
			"componentType":5126,
			"count":65654,
			"type":"VEC3"
		},
		{
			"bufferView":34,
			"componentType":5126,
			"count":65654,
			"type":"VEC2"
		},
		{
			"bufferView":35,
			"componentType":5125,
			"count":212409,
			"type":"SCALAR"
		},
		{
			"bufferView":36,
			"componentType":5126,
			"count":65767,
			"max":[
				0.9832628965377808,
				1.5184688568115234,
				1.8073104619979858
			],
			"min":[
				-0.6647921204566956,
				-1.7479515075683594,
				-1.261487603187561
			],
			"type":"VEC3"
		},
		{
			"bufferView":37,
			"componentType":5126,
			"count":65767,
			"type":"VEC3"
		},
		{
			"bufferView":38,
			"componentType":5126,
			"count":65767,
			"type":"VEC2"
		},
		{
			"bufferView":39,
			"componentType":5125,
			"count":151923,
			"type":"SCALAR"
		},
		{
			"bufferView":40,
			"componentType":5126,
			"count":65888,
			"max":[
				0.9832628965377808,
				1.5144996643066406,
				1.8154034614562988
			],
			"min":[
				-0.6694651246070862,
				-1.7543020248413086,
				-1.2690085172653198
			],
			"type":"VEC3"
		},
		{
			"bufferView":41,
			"componentType":5126,
			"count":65888,
			"type":"VEC3"
		},
		{
			"bufferView":42,
			"componentType":5126,
			"count":65888,
			"type":"VEC2"
		},
		{
			"bufferView":43,
			"componentType":5125,
			"count":103452,
			"type":"SCALAR"
		},
		{
			"bufferView":44,
			"componentType":5126,
			"count":1899,
			"max":[
				0.9565387964248657,
				1.4925651550292969,
				1.6981995105743408
			],
			"min":[
				-0.6682501435279846,
				-1.684896469116211,
				-1.2144585847854614
			],
			"type":"VEC3"
		},
		{
			"bufferView":45,
			"componentType":5126,
			"count":1899,
			"type":"VEC3"
		},
		{
			"bufferView":46,
			"componentType":5126,
			"count":1899,
			"type":"VEC2"
		},
		{
			"bufferView":47,
			"componentType":5123,
			"count":2103,
			"type":"SCALAR"
		},
		{
			"bufferView":48,
			"componentType":5126,
			"count":65829,
			"max":[
				0.9830968379974365,
				1.5079050064086914,
				1.8154034614562988
			],
			"min":[
				-0.6705061197280884,
				-1.7360506057739258,
				-1.267823576927185
			],
			"type":"VEC3"
		},
		{
			"bufferView":49,
			"componentType":5126,
			"count":65829,
			"type":"VEC3"
		},
		{
			"bufferView":50,
			"componentType":5126,
			"count":65829,
			"type":"VEC2"
		},
		{
			"bufferView":51,
			"componentType":5125,
			"count":296313,
			"type":"SCALAR"
		},
		{
			"bufferView":52,
			"componentType":5126,
			"count":65726,
			"max":[
				0.9727978706359863,
				1.5052604675292969,
				1.6073044538497925
			],
			"min":[
				-0.6656671166419983,
				-1.7282781600952148,
				-1.2536855936050415
			],
			"type":"VEC3"
		},
		{
			"bufferView":53,
			"componentType":5126,
			"count":65726,
			"type":"VEC3"
		},
		{
			"bufferView":54,
			"componentType":5126,
			"count":65726,
			"type":"VEC2"
		},
		{
			"bufferView":55,
			"componentType":5125,
			"count":282063,
			"type":"SCALAR"
		},
		{
			"bufferView":56,
			"componentType":5126,
			"count":65730,
			"max":[
				0.9547288417816162,
				1.4749622344970703,
				1.6038744449615479
			],
			"min":[
				-0.6704671382904053,
				-1.704209327697754,
				-1.265465497970581
			],
			"type":"VEC3"
		},
		{
			"bufferView":57,
			"componentType":5126,
			"count":65730,
			"type":"VEC3"
		},
		{
			"bufferView":58,
			"componentType":5126,
			"count":65730,
			"type":"VEC2"
		},
		{
			"bufferView":59,
			"componentType":5125,
			"count":279210,
			"type":"SCALAR"
		},
		{
			"bufferView":60,
			"componentType":5126,
			"count":65699,
			"max":[
				0.9755918979644775,
				1.4668645858764648,
				1.6057324409484863
			],
			"min":[
				-0.6703241467475891,
				-1.7501192092895508,
				-1.2705345153808594
			],
			"type":"VEC3"
		},
		{
			"bufferView":61,
			"componentType":5126,
			"count":65699,
			"type":"VEC3"
		},
		{
			"bufferView":62,
			"componentType":5126,
			"count":65699,
			"type":"VEC2"
		},
		{
			"bufferView":63,
			"componentType":5125,
			"count":258495,
			"type":"SCALAR"
		}
	],
	"bufferViews":[
		{
			"buffer":0,
			"byteLength":787908,
			"byteOffset":0,
			"target":34962
		},
		{
			"buffer":0,
			"byteLength":787908,
			"byteOffset":787908,
			"target":34962
		},
		{
			"buffer":0,
			"byteLength":525272,
			"byteOffset":1575816,
			"target":34962
		},
		{
			"buffer":0,
			"byteLength":935748,
			"byteOffset":2101088,
			"target":34963
		},
		{
			"buffer":0,
			"byteLength":787920,
			"byteOffset":3036836,
			"target":34962
		},
		{
			"buffer":0,
			"byteLength":787920,
			"byteOffset":3824756,
			"target":34962
		},
		{
			"buffer":0,
			"byteLength":525280,
			"byteOffset":4612676,
			"target":34962
		},
		{
			"buffer":0,
			"byteLength":832368,
			"byteOffset":5137956,
			"target":34963
		},
		{
			"buffer":0,
			"byteLength":790212,
			"byteOffset":5970324,
			"target":34962
		},
		{
			"buffer":0,
			"byteLength":790212,
			"byteOffset":6760536,
			"target":34962
		},
		{
			"buffer":0,
			"byteLength":526808,
			"byteOffset":7550748,
			"target":34962
		},
		{
			"buffer":0,
			"byteLength":495108,
			"byteOffset":8077556,
			"target":34963
		},
		{
			"buffer":0,
			"byteLength":219612,
			"byteOffset":8572664,
			"target":34962
		},
		{
			"buffer":0,
			"byteLength":219612,
			"byteOffset":8792276,
			"target":34962
		},
		{
			"buffer":0,
			"byteLength":146408,
			"byteOffset":9011888,
			"target":34962
		},
		{
			"buffer":0,
			"byteLength":43944,
			"byteOffset":9158296,
			"target":34963
		},
		{
			"buffer":0,
			"byteLength":788868,
			"byteOffset":9202240,
			"target":34962
		},
		{
			"buffer":0,
			"byteLength":788868,
			"byteOffset":9991108,
			"target":34962
		},
		{
			"buffer":0,
			"byteLength":525912,
			"byteOffset":10779976,
			"target":34962
		},
		{
			"buffer":0,
			"byteLength":1167492,
			"byteOffset":11305888,
			"target":34963
		},
		{
			"buffer":0,
			"byteLength":788448,
			"byteOffset":12473380,
			"target":34962
		},
		{
			"buffer":0,
			"byteLength":788448,
			"byteOffset":13261828,
			"target":34962
		},
		{
			"buffer":0,
			"byteLength":525632,
			"byteOffset":14050276,
			"target":34962
		},
		{
			"buffer":0,
			"byteLength":1137972,
			"byteOffset":14575908,
			"target":34963
		},
		{
			"buffer":0,
			"byteLength":788076,
			"byteOffset":15713880,
			"target":34962
		},
		{
			"buffer":0,
			"byteLength":788076,
			"byteOffset":16501956,
			"target":34962
		},
		{
			"buffer":0,
			"byteLength":525384,
			"byteOffset":17290032,
			"target":34962
		},
		{
			"buffer":0,
			"byteLength":1089708,
			"byteOffset":17815416,
			"target":34963
		},
		{
			"buffer":0,
			"byteLength":787908,
			"byteOffset":18905124,
			"target":34962
		},
		{
			"buffer":0,
			"byteLength":787908,
			"byteOffset":19693032,
			"target":34962
		},
		{
			"buffer":0,
			"byteLength":525272,
			"byteOffset":20480940,
			"target":34962
		},
		{
			"buffer":0,
			"byteLength":1071144,
			"byteOffset":21006212,
			"target":34963
		},
		{
			"buffer":0,
			"byteLength":787848,
			"byteOffset":22077356,
			"target":34962
		},
		{
			"buffer":0,
			"byteLength":787848,
			"byteOffset":22865204,
			"target":34962
		},
		{
			"buffer":0,
			"byteLength":525232,
			"byteOffset":23653052,
			"target":34962
		},
		{
			"buffer":0,
			"byteLength":849636,
			"byteOffset":24178284,
			"target":34963
		},
		{
			"buffer":0,
			"byteLength":789204,
			"byteOffset":25027920,
			"target":34962
		},
		{
			"buffer":0,
			"byteLength":789204,
			"byteOffset":25817124,
			"target":34962
		},
		{
			"buffer":0,
			"byteLength":526136,
			"byteOffset":26606328,
			"target":34962
		},
		{
			"buffer":0,
			"byteLength":607692,
			"byteOffset":27132464,
			"target":34963
		},
		{
			"buffer":0,
			"byteLength":790656,
			"byteOffset":27740156,
			"target":34962
		},
		{
			"buffer":0,
			"byteLength":790656,
			"byteOffset":28530812,
			"target":34962
		},
		{
			"buffer":0,
			"byteLength":527104,
			"byteOffset":29321468,
			"target":34962
		},
		{
			"buffer":0,
			"byteLength":413808,
			"byteOffset":29848572,
			"target":34963
		},
		{
			"buffer":0,
			"byteLength":22788,
			"byteOffset":30262380,
			"target":34962
		},
		{
			"buffer":0,
			"byteLength":22788,
			"byteOffset":30285168,
			"target":34962
		},
		{
			"buffer":0,
			"byteLength":15192,
			"byteOffset":30307956,
			"target":34962
		},
		{
			"buffer":0,
			"byteLength":4206,
			"byteOffset":30323148,
			"target":34963
		},
		{
			"buffer":0,
			"byteLength":789948,
			"byteOffset":30327356,
			"target":34962
		},
		{
			"buffer":0,
			"byteLength":789948,
			"byteOffset":31117304,
			"target":34962
		},
		{
			"buffer":0,
			"byteLength":526632,
			"byteOffset":31907252,
			"target":34962
		},
		{
			"buffer":0,
			"byteLength":1185252,
			"byteOffset":32433884,
			"target":34963
		},
		{
			"buffer":0,
			"byteLength":788712,
			"byteOffset":33619136,
			"target":34962
		},
		{
			"buffer":0,
			"byteLength":788712,
			"byteOffset":34407848,
			"target":34962
		},
		{
			"buffer":0,
			"byteLength":525808,
			"byteOffset":35196560,
			"target":34962
		},
		{
			"buffer":0,
			"byteLength":1128252,
			"byteOffset":35722368,
			"target":34963
		},
		{
			"buffer":0,
			"byteLength":788760,
			"byteOffset":36850620,
			"target":34962
		},
		{
			"buffer":0,
			"byteLength":788760,
			"byteOffset":37639380,
			"target":34962
		},
		{
			"buffer":0,
			"byteLength":525840,
			"byteOffset":38428140,
			"target":34962
		},
		{
			"buffer":0,
			"byteLength":1116840,
			"byteOffset":38953980,
			"target":34963
		},
		{
			"buffer":0,
			"byteLength":788388,
			"byteOffset":40070820,
			"target":34962
		},
		{
			"buffer":0,
			"byteLength":788388,
			"byteOffset":40859208,
			"target":34962
		},
		{
			"buffer":0,
			"byteLength":525592,
			"byteOffset":41647596,
			"target":34962
		},
		{
			"buffer":0,
			"byteLength":1033980,
			"byteOffset":42173188,
			"target":34963
		}
	],
	"samplers":[
		{
			"magFilter":9729,
			"minFilter":9987
		}
	],
	"buffers":[
		{
			"byteLength":43207168,
			"uri":"scene.bin"
		}
	]
}
